<svg width="321" height="315" viewBox="0 0 321 315" fill="none" xmlns="http://www.w3.org/2000/svg">
<path opacity="0.15" fill-rule="evenodd" clip-rule="evenodd" d="M167.58 0.0564973C207.552 -1.60592 237.16 33.7455 264.897 62.9251C291.882 91.3131 320.062 122.043 320.974 161.426C321.901 201.473 297.721 236.501 269.567 264.654C241.615 292.606 206.829 312.949 167.58 314.818C126.454 316.777 86.0125 302.85 55.52 274.849C23.4858 245.433 -4.24065 204.938 0.538839 161.426C5.07368 120.142 48.257 99.38 77.9446 70.7004C106.422 43.1899 128.247 1.69233 167.58 0.0564973Z" fill="#F54749"/>
<path d="M287.791 180.864C284.953 176.907 281.461 173.245 275.238 173.245C270.583 173.245 264.666 175.311 255.213 180.293L220.001 201.821C214.248 204.883 201.564 205.496 193.675 205.618C195.525 201.759 194.696 197.17 191.213 191.967C187.983 187.149 183.585 183.318 178.48 180.701C186.941 173.824 192.005 163.587 192.005 152.337C192.005 132.075 175.52 115.586 155.254 115.586C134.987 115.586 118.502 132.075 118.502 152.337C118.502 158.385 120.005 164.159 122.696 169.308C122.643 169.271 122.586 169.239 122.537 169.198C107.979 158.226 83.5439 156.608 73.5843 156.425V144.056H45V274.841H73.5843V262.591H126.669C135 262.591 143.403 261.954 151.644 260.704L204.578 252.656C206.505 252.631 208.457 252.403 210.197 252.011C215.072 251.325 219.732 248.997 223.68 245.273L285.672 196.994C290.49 193.004 291.421 185.916 287.791 180.864ZM155.254 131.92C166.512 131.92 175.671 141.079 175.671 152.337C175.671 163.595 166.512 172.755 155.254 172.755C143.996 172.755 134.836 163.595 134.836 152.337C134.836 141.079 143.996 131.92 155.254 131.92ZM280.559 190.628L218.503 238.952L218.188 239.225C215.452 241.843 212.296 243.468 208.657 243.995C207.171 244.325 205.689 244.493 204.255 244.493L150.415 252.631C142.579 253.824 134.587 254.428 126.669 254.428H73.5843V164.592C88.4726 164.861 107.228 167.891 117.62 175.723C123.076 179.839 129.614 182.632 136.588 183.972L136.649 184.009L137.425 184.143C137.466 184.151 137.503 184.151 137.544 184.16C138.883 184.388 140.239 184.572 141.607 184.69C141.652 184.695 141.697 184.703 141.737 184.707C143.126 184.825 144.522 184.895 145.931 184.895H161.857C164.103 184.895 166.348 185.16 168.529 185.683L168.79 185.748C175.214 187.341 180.796 191.118 184.418 196.52C186.1 199.032 186.794 201.135 186.276 202.143C185.504 203.646 181.559 205.259 174.675 205.471C173.115 205.447 171.69 205.43 170.428 205.43H130.753C117.968 205.43 110.336 211.535 110.336 221.764C110.336 224.018 112.161 225.848 114.419 225.848C116.677 225.848 118.502 224.018 118.502 221.764C118.502 219.743 118.502 213.597 130.753 213.597H170.322C170.661 213.618 171.608 213.667 172.972 213.667C173.507 213.667 174.099 213.659 174.552 213.642L177.464 213.691C180.894 213.757 184.773 213.826 188.812 213.826C206.807 213.826 217.608 212.352 224.048 208.918L259.239 187.398C267.002 183.318 272.086 181.42 275.238 181.42C277.239 181.42 278.566 182.028 281.155 185.634C282.29 187.21 281.988 189.44 280.559 190.628Z" fill="black"/>
<path d="M216.506 111.502C236.772 111.502 253.257 95.0134 253.257 74.7512C253.257 54.489 236.772 38 216.506 38C196.239 38 179.755 54.489 179.755 74.7512C179.755 95.0134 196.239 111.502 216.506 111.502ZM216.506 54.3339C227.764 54.3339 236.923 63.4931 236.923 74.7512C236.923 86.0093 227.764 95.1686 216.506 95.1686C205.248 95.1686 196.088 86.0093 196.088 74.7512C196.088 63.4931 205.248 54.3339 216.506 54.3339Z" fill="black"/>
</svg>
